<svg width="152px" height="116px"
 viewBox="0.00 0.00 152.24 116.00" xmlns="http://www.w3.org/2000/svg" xmlns:xlink="http://www.w3.org/1999/xlink">
<g id="graph0" class="graph" transform="scale(1.0 1.0) rotate(0.0) translate(4.0 112.0)">
<polygon fill="white" stroke="transparent" points="-4,4 -4,-112 148.24,-112 148.24,4 -4,4"/>
<!-- root -->
<g id="node1" class="node">
<title>root</title>
<ellipse fill="none" stroke="black" cx="76.24" cy="-90" rx="27" ry="18"/>
<text text-anchor="middle" x="76.24" y="-85.8" font-family="Times,serif" font-size="14.00">root</text>
</g>
<!-- details -->
<g id="node2" class="node">
<title>details</title>
<ellipse fill="none" stroke="black" cx="36.24" cy="-18" rx="36.49" ry="18"/>
<text text-anchor="middle" x="36.24" y="-13.8" font-family="Times,serif" font-size="14.00">details</text>
</g>
<!-- root&#45;&gt;details -->
<g id="edge1" class="edge">
<title>root&#45;&gt;details</title>
<path fill="none" stroke="black" d="M66.97,-72.76C62.19,-64.4 56.25,-54.02 50.88,-44.61"/>
<polygon fill="black" stroke="black" points="53.75,-42.58 45.75,-35.63 47.67,-46.05 53.75,-42.58"/>
</g>
<!-- list -->
<g id="node3" class="node">
<title>list</title>
<ellipse fill="none" stroke="black" cx="117.24" cy="-18" rx="27" ry="18"/>
<text text-anchor="middle" x="117.24" y="-13.8" font-family="Times,serif" font-size="14.00">list</text>
</g>
<!-- root&#45;&gt;list -->
<g id="edge2" class="edge">
<title>root&#45;&gt;list</title>
<path fill="none" stroke="black" d="M85.75,-72.76C90.77,-64.19 97.04,-53.49 102.66,-43.9"/>
<polygon fill="black" stroke="black" points="105.75,-45.55 107.79,-35.15 99.71,-42.01 105.75,-45.55"/>
</g>
</g>
</svg>
